# xmcd
#
# Track frame offsets: 
#        150
#        29353
#        45134
#        57177
#        69743
#        96081
#        111290
#        128796
#        142873
#        159917
#        181110
#        194647
#        214727
#        227548
#        270211
#        283416
#        306410
#
# Disc length: 4268 seconds
#
# Revision: 4
# Processed by: cddbd v1.5.2PL0 Copyright (c) Steve Scherf et al.
# Submitted via: ExactAudioCopy v1.1
#
DISCID=ec10aa11
DTITLE=Bobby Womack - Understanding - Communication
DYEAR=2004
DGENRE=Soul
TTITLE0=I Can Understand It
TTITLE1=Woman's Gotta Have It
TTITLE2=And I Love Her
TTITLE3=Got To Get You Back
TTITLE4=Simple Man
TTITLE5=Ruby Dean
TTITLE6=Thing Called Love
TTITLE7=Sweet Caroline (Good Times Never Seemed So Good)
TTITLE8=Harry Hippie
TTITLE9=Communication
TTITLE10=Come L'Amore
TTITLE11=Fire And Rain
TTITLE12=(If You Don't Want My Love) Give It Back
TTITLE13=Medley- Monologue - (They Long To Be) Close To You
TTITLE14=Everything Is Beautiful
TTITLE15=That's The Way I Feel About Cha
TTITLE16=Yield Not To Temptation
EXTD=
EXTT0=
EXTT1=
EXTT2=
EXTT3=
EXTT4=
EXTT5=
EXTT6=
EXTT7=
EXTT8=
EXTT9=
EXTT10=
EXTT11=
EXTT12=
EXTT13=
EXTT14=
EXTT15=
EXTT16=
PLAYORDER=
